<svg xmlns="http://www.w3.org/2000/svg" viewBox="0 0 640 400" width="640" height="400" role="img"><rect width="640" height="400" fill="#12151A"/><rect x="30.0" y="185.9" width="2.6" height="20.2" rx="1.3" fill="#C9822F" opacity="0.82"/><rect x="34.4" y="171.4" width="2.6" height="49.2" rx="1.3" fill="#E8E6DF" opacity="0.30"/><rect x="38.8" y="162.7" width="2.6" height="66.5" rx="1.3" fill="#E8E6DF" opacity="0.30"/><rect x="43.2" y="165.6" width="2.6" height="60.9" rx="1.3" fill="#E8E6DF" opacity="0.30"/><rect x="47.6" y="177.7" width="2.6" height="36.6" rx="1.3" fill="#E8E6DF" opacity="0.30"/><rect x="52.0" y="185.7" width="2.6" height="20.6" rx="1.3" fill="#C9822F" opacity="0.82"/><rect x="65.8" y="178.7" width="2.6" height="34.6" rx="1.3" fill="#E8E6DF" opacity="0.30"/><rect x="70.2" y="171.7" width="2.6" height="48.5" rx="1.3" fill="#E8E6DF" opacity="0.30"/><rect x="74.6" y="158.3" width="2.6" height="75.3" rx="1.3" fill="#E8E6DF" opacity="0.30"/><rect x="79.0" y="153.9" width="2.6" height="84.2" rx="1.3" fill="#C9822F" opacity="0.82"/><rect x="83.4" y="184.0" width="2.6" height="24.0" rx="1.3" fill="#C9822F" opacity="0.82"/><rect x="93.2" y="180.1" width="2.6" height="31.8" rx="1.3" fill="#E8E6DF" opacity="0.30"/><rect x="97.6" y="171.5" width="2.6" height="48.9" rx="1.3" fill="#C9822F" opacity="0.82"/><rect x="102.0" y="160.0" width="2.6" height="72.1" rx="1.3" fill="#E8E6DF" opacity="0.30"/><rect x="106.4" y="166.1" width="2.6" height="59.8" rx="1.3" fill="#C9822F" opacity="0.82"/><rect x="110.8" y="179.0" width="2.6" height="34.0" rx="1.3" fill="#E8E6DF" opacity="0.30"/><rect x="123.5" y="187.4" width="2.6" height="17.1" rx="1.3" fill="#C9822F" opacity="0.82"/><rect x="127.9" y="167.1" width="2.6" height="57.8" rx="1.3" fill="#E8E6DF" opacity="0.30"/><rect x="132.3" y="177.3" width="2.6" height="37.4" rx="1.3" fill="#E8E6DF" opacity="0.30"/><rect x="136.7" y="182.9" width="2.6" height="26.1" rx="1.3" fill="#E8E6DF" opacity="0.30"/><rect x="147.0" y="182.8" width="2.6" height="26.4" rx="1.3" fill="#C9822F" opacity="0.82"/><rect x="151.4" y="172.8" width="2.6" height="46.4" rx="1.3" fill="#C9822F" opacity="0.82"/><rect x="155.8" y="165.7" width="2.6" height="60.6" rx="1.3" fill="#C9822F" opacity="0.82"/><rect x="160.2" y="151.0" width="2.6" height="90.0" rx="1.3" fill="#C9822F" opacity="0.82"/><rect x="164.6" y="148.6" width="2.6" height="94.9" rx="1.3" fill="#C9822F" opacity="0.82"/><rect x="169.0" y="148.2" width="2.6" height="95.6" rx="1.3" fill="#E8E6DF" opacity="0.30"/><rect x="173.4" y="151.9" width="2.6" height="88.3" rx="1.3" fill="#E8E6DF" opacity="0.30"/><rect x="177.8" y="167.2" width="2.6" height="57.5" rx="1.3" fill="#C9822F" opacity="0.82"/><rect x="182.2" y="181.9" width="2.6" height="28.2" rx="1.3" fill="#C9822F" opacity="0.82"/><rect x="192.1" y="186.9" width="2.6" height="18.1" rx="1.3" fill="#E8E6DF" opacity="0.30"/><rect x="196.5" y="183.7" width="2.6" height="24.7" rx="1.3" fill="#C9822F" opacity="0.82"/><rect x="200.9" y="179.5" width="2.6" height="33.0" rx="1.3" fill="#C9822F" opacity="0.82"/><rect x="205.3" y="165.3" width="2.6" height="61.5" rx="1.3" fill="#E8E6DF" opacity="0.30"/><rect x="209.7" y="168.6" width="2.6" height="54.9" rx="1.3" fill="#E8E6DF" opacity="0.30"/><rect x="214.1" y="166.0" width="2.6" height="60.1" rx="1.3" fill="#E8E6DF" opacity="0.30"/><rect x="218.5" y="167.7" width="2.6" height="56.7" rx="1.3" fill="#C9822F" opacity="0.82"/><rect x="222.9" y="183.2" width="2.6" height="25.7" rx="1.3" fill="#E8E6DF" opacity="0.30"/><rect x="227.3" y="187.6" width="2.6" height="16.7" rx="1.3" fill="#E8E6DF" opacity="0.30"/><rect x="240.7" y="179.8" width="2.6" height="32.5" rx="1.3" fill="#E8E6DF" opacity="0.30"/><rect x="245.1" y="158.8" width="2.6" height="74.3" rx="1.3" fill="#E8E6DF" opacity="0.30"/><rect x="249.5" y="137.6" width="2.6" height="116.8" rx="1.3" fill="#C9822F" opacity="0.82"/><rect x="253.9" y="168.6" width="2.6" height="54.8" rx="1.3" fill="#E8E6DF" opacity="0.30"/><rect x="266.3" y="182.2" width="2.6" height="27.7" rx="1.3" fill="#C9822F" opacity="0.82"/><rect x="270.7" y="178.3" width="2.6" height="35.5" rx="1.3" fill="#C9822F" opacity="0.82"/><rect x="275.1" y="147.2" width="2.6" height="97.7" rx="1.3" fill="#E8E6DF" opacity="0.30"/><rect x="279.5" y="147.4" width="2.6" height="97.2" rx="1.3" fill="#C9822F" opacity="0.82"/><rect x="283.9" y="151.6" width="2.6" height="88.8" rx="1.3" fill="#C9822F" opacity="0.82"/><rect x="288.3" y="155.0" width="2.6" height="81.9" rx="1.3" fill="#E8E6DF" opacity="0.30"/><rect x="292.7" y="176.0" width="2.6" height="40.0" rx="1.3" fill="#C9822F" opacity="0.82"/><rect x="297.1" y="186.1" width="2.6" height="19.7" rx="1.3" fill="#E8E6DF" opacity="0.30"/><rect x="311.0" y="182.2" width="2.6" height="27.7" rx="1.3" fill="#C9822F" opacity="0.82"/><rect x="315.4" y="166.9" width="2.6" height="58.2" rx="1.3" fill="#C9822F" opacity="0.82"/><rect x="319.8" y="169.8" width="2.6" height="52.5" rx="1.3" fill="#C9822F" opacity="0.82"/><rect x="324.2" y="169.6" width="2.6" height="52.8" rx="1.3" fill="#E8E6DF" opacity="0.30"/><rect x="328.6" y="153.4" width="2.6" height="85.2" rx="1.3" fill="#E8E6DF" opacity="0.30"/><rect x="333.0" y="174.4" width="2.6" height="43.1" rx="1.3" fill="#C9822F" opacity="0.82"/><rect x="337.4" y="185.4" width="2.6" height="21.1" rx="1.3" fill="#C9822F" opacity="0.82"/><rect x="349.3" y="185.9" width="2.6" height="20.1" rx="1.3" fill="#E8E6DF" opacity="0.30"/><rect x="353.7" y="168.2" width="2.6" height="55.7" rx="1.3" fill="#C9822F" opacity="0.82"/><rect x="358.1" y="155.3" width="2.6" height="81.5" rx="1.3" fill="#E8E6DF" opacity="0.30"/><rect x="362.5" y="157.1" width="2.6" height="77.9" rx="1.3" fill="#C9822F" opacity="0.82"/><rect x="366.9" y="168.9" width="2.6" height="54.2" rx="1.3" fill="#C9822F" opacity="0.82"/><rect x="371.3" y="172.7" width="2.6" height="46.5" rx="1.3" fill="#C9822F" opacity="0.82"/><rect x="375.7" y="174.6" width="2.6" height="42.8" rx="1.3" fill="#C9822F" opacity="0.82"/><rect x="380.1" y="186.6" width="2.6" height="18.9" rx="1.3" fill="#C9822F" opacity="0.82"/><rect x="391.3" y="181.8" width="2.6" height="28.4" rx="1.3" fill="#C9822F" opacity="0.82"/><rect x="395.7" y="173.0" width="2.6" height="46.0" rx="1.3" fill="#C9822F" opacity="0.82"/><rect x="400.1" y="155.2" width="2.6" height="81.6" rx="1.3" fill="#C9822F" opacity="0.82"/><rect x="404.5" y="175.3" width="2.6" height="41.4" rx="1.3" fill="#C9822F" opacity="0.82"/><rect x="408.9" y="150.6" width="2.6" height="90.8" rx="1.3" fill="#E8E6DF" opacity="0.30"/><rect x="413.3" y="177.0" width="2.6" height="38.1" rx="1.3" fill="#E8E6DF" opacity="0.30"/><rect x="417.7" y="186.9" width="2.6" height="18.3" rx="1.3" fill="#E8E6DF" opacity="0.30"/><rect x="433.7" y="184.0" width="2.6" height="24.0" rx="1.3" fill="#C9822F" opacity="0.82"/><rect x="438.1" y="183.3" width="2.6" height="25.3" rx="1.3" fill="#C9822F" opacity="0.82"/><rect x="442.5" y="157.0" width="2.6" height="78.0" rx="1.3" fill="#C9822F" opacity="0.82"/><rect x="446.9" y="171.8" width="2.6" height="48.5" rx="1.3" fill="#E8E6DF" opacity="0.30"/><rect x="451.3" y="147.0" width="2.6" height="98.1" rx="1.3" fill="#E8E6DF" opacity="0.30"/><rect x="455.7" y="158.7" width="2.6" height="74.6" rx="1.3" fill="#C9822F" opacity="0.82"/><rect x="460.1" y="161.2" width="2.6" height="69.7" rx="1.3" fill="#C9822F" opacity="0.82"/><rect x="464.5" y="177.2" width="2.6" height="37.7" rx="1.3" fill="#E8E6DF" opacity="0.30"/><rect x="468.9" y="186.4" width="2.6" height="19.2" rx="1.3" fill="#C9822F" opacity="0.82"/><rect x="483.5" y="161.4" width="2.6" height="69.1" rx="1.3" fill="#C9822F" opacity="0.82"/><rect x="487.9" y="163.8" width="2.6" height="64.4" rx="1.3" fill="#C9822F" opacity="0.82"/><rect x="492.3" y="168.0" width="2.6" height="55.9" rx="1.3" fill="#C9822F" opacity="0.82"/><rect x="506.4" y="186.7" width="2.6" height="18.6" rx="1.3" fill="#E8E6DF" opacity="0.30"/><rect x="510.8" y="178.1" width="2.6" height="35.9" rx="1.3" fill="#C9822F" opacity="0.82"/><rect x="515.2" y="176.8" width="2.6" height="38.3" rx="1.3" fill="#C9822F" opacity="0.82"/><rect x="519.6" y="179.1" width="2.6" height="33.8" rx="1.3" fill="#C9822F" opacity="0.82"/><rect x="524.0" y="175.9" width="2.6" height="40.2" rx="1.3" fill="#E8E6DF" opacity="0.30"/><rect x="528.4" y="185.6" width="2.6" height="20.8" rx="1.3" fill="#E8E6DF" opacity="0.30"/><rect x="545.2" y="182.2" width="2.6" height="27.6" rx="1.3" fill="#E8E6DF" opacity="0.30"/><rect x="549.6" y="159.4" width="2.6" height="73.2" rx="1.3" fill="#C9822F" opacity="0.82"/><rect x="554.0" y="164.6" width="2.6" height="62.8" rx="1.3" fill="#C9822F" opacity="0.82"/><rect x="558.4" y="154.3" width="2.6" height="83.3" rx="1.3" fill="#C9822F" opacity="0.82"/><rect x="562.8" y="160.0" width="2.6" height="72.0" rx="1.3" fill="#E8E6DF" opacity="0.30"/><rect x="567.2" y="153.6" width="2.6" height="84.9" rx="1.3" fill="#C9822F" opacity="0.82"/><rect x="571.6" y="177.3" width="2.6" height="37.3" rx="1.3" fill="#C9822F" opacity="0.82"/><rect x="583.3" y="185.7" width="2.6" height="20.5" rx="1.3" fill="#E8E6DF" opacity="0.30"/><rect x="587.7" y="178.7" width="2.6" height="34.5" rx="1.3" fill="#C9822F" opacity="0.82"/><rect x="592.1" y="153.9" width="2.6" height="84.1" rx="1.3" fill="#C9822F" opacity="0.82"/><rect x="596.5" y="152.2" width="2.6" height="87.7" rx="1.3" fill="#E8E6DF" opacity="0.30"/><rect x="600.9" y="160.8" width="2.6" height="70.5" rx="1.3" fill="#C9822F" opacity="0.82"/><rect x="605.3" y="144.9" width="2.6" height="102.3" rx="1.3" fill="#E8E6DF" opacity="0.30"/><rect x="609.7" y="169.3" width="2.6" height="53.4" rx="1.3" fill="#C9822F" opacity="0.82"/><rect x="614.1" y="185.1" width="2.6" height="21.8" rx="1.3" fill="#C9822F" opacity="0.82"/><path d="M 30.0,289.4 L 54.0,279.6 L 78.0,272.0 L 102.0,267.7 L 126.0,267.1 L 150.0,270.5 L 174.0,277.0 L 198.0,285.8 L 222.0,295.5 L 246.0,304.8 L 270.0,312.6 L 294.0,318.1 L 318.0,321.3 L 342.0,322.5 L 366.0,322.4 L 390.0,321.9 L 414.0,321.8 L 438.0,322.8 L 462.0,325.1 L 486.0,328.4 L 510.0,332.1 L 534.0,335.2 L 558.0,336.6 L 582.0,335.5 L 606.0,331.2" fill="none" stroke="#5B8FA6" stroke-width="2.2" opacity=".80" stroke-linejoin="round"/><circle cx="30.0" cy="289.4" r="3.1" fill="#5B8FA6" opacity=".9"/><circle cx="102.0" cy="267.7" r="3.1" fill="#5B8FA6" opacity=".9"/><circle cx="174.0" cy="277.0" r="3.1" fill="#5B8FA6" opacity=".9"/><circle cx="246.0" cy="304.8" r="3.1" fill="#5B8FA6" opacity=".9"/><circle cx="318.0" cy="321.3" r="3.1" fill="#5B8FA6" opacity=".9"/><circle cx="390.0" cy="321.9" r="3.1" fill="#5B8FA6" opacity=".9"/><circle cx="462.0" cy="325.1" r="3.1" fill="#5B8FA6" opacity=".9"/><circle cx="534.0" cy="335.2" r="3.1" fill="#5B8FA6" opacity=".9"/><circle cx="606.0" cy="331.2" r="3.1" fill="#5B8FA6" opacity=".9"/><line x1="30" y1="356" x2="606" y2="356" stroke="#E8E6DF" stroke-width="1" opacity=".18"/></svg>